<svg width="23" height="23" viewBox="0 0 23 23" fill="none" xmlns="http://www.w3.org/2000/svg">
<g clip-path="url(#clip0_75_83)">
<path d="M10.6201 2.32648C16.4109 2.32648 21.1201 5.61248 21.1201 9.65082C21.1201 11.2661 20.3904 12.7229 18.8696 14.1558C16.6664 16.3365 11.7419 18.9913 10.6201 19.3982C10.439 19.4721 10.243 19.5158 10.0426 19.5268C9.56662 19.5268 9.67512 19.0871 9.71012 18.9106L9.85887 18.1388C9.89562 17.907 9.93237 17.5495 9.82737 17.3236C9.71012 17.0694 9.24287 16.9408 8.90162 16.8779C3.85637 16.3036 0.120117 13.2704 0.120117 9.65082C0.120117 5.61248 4.82937 2.32648 10.6201 2.32648ZM8.48687 7.69896H7.75187C7.72483 7.69876 7.69802 7.70314 7.67298 7.71184C7.64793 7.72055 7.62515 7.73341 7.60595 7.74968C7.58676 7.76595 7.57152 7.78531 7.56112 7.80663C7.55072 7.82796 7.54537 7.85084 7.54537 7.87395V11.8076C7.54537 11.9048 7.63812 11.9826 7.75012 11.9826H8.48687C8.54087 11.9822 8.5925 11.9636 8.63052 11.9308C8.66854 11.898 8.68987 11.8537 8.68987 11.8076V7.87395C8.6901 7.85104 8.68502 7.82832 8.67492 7.8071C8.66482 7.78587 8.64991 7.76657 8.63103 7.7503C8.61216 7.73403 8.5897 7.72112 8.56496 7.7123C8.54021 7.70349 8.51367 7.69895 8.48687 7.69896ZM10.3559 7.69896H9.61212C9.55781 7.69896 9.50573 7.71739 9.46734 7.75021C9.42894 7.78303 9.40737 7.82754 9.40737 7.87395V11.8076C9.40737 11.9048 9.50012 11.9826 9.61212 11.9826H10.3471C10.3742 11.9828 10.401 11.9784 10.426 11.9697C10.4511 11.961 10.4738 11.9481 10.493 11.9319C10.5122 11.9156 10.5275 11.8962 10.5379 11.8749C10.5483 11.8536 10.5536 11.8307 10.5536 11.8076V9.47283L12.6501 11.9078C12.6637 11.9258 12.6816 11.9411 12.7026 11.9527H12.7061L12.7166 11.9586L12.7219 11.9616L12.7324 11.9661L12.7429 11.9691L12.7481 11.9721L12.7639 11.9751L12.8164 11.9826H13.5549C13.6092 11.9826 13.6612 11.9641 13.6996 11.9313C13.738 11.8985 13.7596 11.854 13.7596 11.8076V7.87395C13.7596 7.82754 13.738 7.78303 13.6996 7.75021C13.6612 7.71739 13.6092 7.69896 13.5549 7.69896H12.8181C12.7638 7.69896 12.7117 7.71739 12.6733 7.75021C12.6349 7.78303 12.6134 7.82754 12.6134 7.87395V10.2117L10.5186 7.77673L10.5011 7.75878L10.4889 7.74682L10.4854 7.74383L10.4714 7.73336L10.4574 7.72737L10.4539 7.72438L10.4416 7.7184L10.4364 7.71541L10.4241 7.71092L10.4171 7.70942L10.4049 7.70643L10.3979 7.70344L10.3856 7.70195L10.3786 7.70045L10.3559 7.69896ZM17.6236 7.69896H14.6801C14.6273 7.69958 14.5767 7.7172 14.5384 7.74831L14.5366 7.74981L14.5331 7.7528C14.4978 7.78538 14.4778 7.82802 14.4771 7.87245V11.8061C14.4769 11.8291 14.482 11.8519 14.492 11.8732C14.5021 11.8945 14.517 11.9139 14.5358 11.9303C14.5547 11.9467 14.5771 11.9597 14.6019 11.9687C14.6266 11.9777 14.6532 11.9824 14.6801 11.9826H17.6236C17.6775 11.981 17.7286 11.9619 17.7664 11.929C17.8042 11.8962 17.8258 11.8522 17.8266 11.8061V11.1734C17.8266 11.1273 17.8053 11.083 17.7673 11.0502C17.7292 11.0174 17.6776 10.9988 17.6236 10.9984H15.6216V10.3328H17.6236C17.6505 10.3327 17.6771 10.3279 17.7018 10.319C17.7266 10.31 17.749 10.2969 17.7679 10.2805C17.7867 10.2641 17.8016 10.2447 17.8117 10.2234C17.8218 10.2021 17.8268 10.1793 17.8266 10.1564V9.52518C17.8271 9.50214 17.8222 9.47926 17.8122 9.45787C17.8022 9.43647 17.7873 9.41699 17.7684 9.40056C17.7495 9.38413 17.727 9.37108 17.7021 9.36218C17.6773 9.35327 17.6506 9.34869 17.6236 9.34869H15.6216V8.68311H17.6236C17.6504 8.68311 17.677 8.67858 17.7017 8.66976C17.7265 8.66095 17.7489 8.64804 17.7678 8.63177C17.7867 8.6155 17.8016 8.59619 17.8117 8.57497C17.8218 8.55375 17.8268 8.53103 17.8266 8.50812V7.87545C17.8268 7.85246 17.8218 7.82967 17.8117 7.80836C17.8016 7.78706 17.7867 7.76765 17.7679 7.75127C17.749 7.73488 17.7266 7.72182 17.7018 7.71285C17.6771 7.70387 17.6505 7.69915 17.6236 7.69896ZM4.50562 7.69896H3.76887C3.74206 7.69895 3.71552 7.70349 3.69078 7.7123C3.66603 7.72112 3.64358 7.73403 3.6247 7.7503C3.60583 7.76657 3.59091 7.78587 3.58081 7.8071C3.57072 7.82832 3.56564 7.85104 3.56587 7.87395V11.8076C3.56703 11.8554 3.5857 11.8953 3.62187 11.9272L3.62712 11.9332C3.66498 11.964 3.71489 11.9816 3.76712 11.9826H6.71237C6.73926 11.9824 6.76584 11.9777 6.79059 11.9687C6.81534 11.9597 6.83779 11.9467 6.85664 11.9303C6.87549 11.9139 6.89038 11.8945 6.90045 11.8732C6.91053 11.8519 6.9156 11.8291 6.91537 11.8061V11.1734C6.9156 11.1505 6.91052 11.1278 6.90042 11.1066C6.89032 11.0853 6.87541 11.066 6.85653 11.0498C6.83766 11.0335 6.8152 11.0206 6.79046 11.0118C6.76571 11.003 6.73917 10.9984 6.71237 10.9984H4.71037V7.87245C4.71037 7.84954 4.70506 7.82686 4.69475 7.80571C4.68444 7.78456 4.66933 7.76537 4.65029 7.74924C4.63126 7.73311 4.60867 7.72036 4.58384 7.71173C4.55901 7.7031 4.53242 7.69876 4.50562 7.69896Z" fill="white"/>
</g>
<defs>
<clipPath id="clip0_75_83">
<rect width="22.4117" height="22.4117" fill="white" transform="translate(0.120117 0.426636)"/>
</clipPath>
</defs>
</svg>
